<?xml version="1.0" encoding="UTF-8" standalone="no"?>
<!-- Created with Inkscape (http://www.inkscape.org/) -->

<svg
   xmlns:dc="http://purl.org/dc/elements/1.1/"
   xmlns:cc="http://creativecommons.org/ns#"
   xmlns:rdf="http://www.w3.org/1999/02/22-rdf-syntax-ns#"
   xmlns:svg="http://www.w3.org/2000/svg"
   xmlns="http://www.w3.org/2000/svg"
   xmlns:sodipodi="http://sodipodi.sourceforge.net/DTD/sodipodi-0.dtd"
   xmlns:inkscape="http://www.inkscape.org/namespaces/inkscape"
   width="210mm"
   height="297mm"
   viewBox="0 0 744.09448819 1052.3622047"
   id="svg2"
   version="1.1"
   inkscape:version="0.91 r13725"
   sodipodi:docname="Aexte.svg">
  <defs
     id="defs4" />
  <sodipodi:namedview
     id="base"
     pagecolor="#ffffff"
     bordercolor="#666666"
     borderopacity="1.0"
     inkscape:pageopacity="0.0"
     inkscape:pageshadow="2"
     inkscape:zoom="2.2827963"
     inkscape:cx="396.34305"
     inkscape:cy="858.98859"
     inkscape:document-units="px"
     inkscape:current-layer="layer3"
     showgrid="false"
     inkscape:window-width="1920"
     inkscape:window-height="971"
     inkscape:window-x="0"
     inkscape:window-y="31"
     inkscape:window-maximized="1" />
  <metadata
     id="metadata7">
    <rdf:RDF>
      <cc:Work
         rdf:about="">
        <dc:format>image/svg+xml</dc:format>
        <dc:type
           rdf:resource="http://purl.org/dc/dcmitype/StillImage" />
        <dc:title />
      </cc:Work>
    </rdf:RDF>
  </metadata>
  <g
     inkscape:label="Erste Axt"
     inkscape:groupmode="layer"
     id="layer1" />
  <g
     inkscape:groupmode="layer"
     id="layer3"
     inkscape:label="Erste Axt - Kopf">
    <path
       style="fill:#445500;fill-rule:evenodd;stroke:#000000;stroke-width:1px;stroke-linecap:butt;stroke-linejoin:miter;stroke-opacity:1"
       d="m 388.02976,149.46899 c -3.04747,36.46418 -3.30098,65.24938 1.17164,101.31777 l 6.40956,-1.12951 c -4.93332,-37.02907 -6.40102,-64.17246 -5.64752,-100.09754 z"
       id="path4307"
       inkscape:connector-curvature="0"
       sodipodi:nodetypes="ccccc" />
    <g
       id="g4222"
       inkscape:export-xdpi="90"
       inkscape:export-ydpi="90">
      <path
         sodipodi:nodetypes="cccccc"
         inkscape:connector-curvature="0"
         id="path3336"
         d="m 264,125.36221 0,209 16.59748,0 -0.24307,-157.19332 c 0.35063,-21.16537 5.94696,-36.26606 5.43588,-51.48086 z"
         style="fill:#502d16;fill-rule:evenodd;stroke:#000000;stroke-width:1px;stroke-linecap:butt;stroke-linejoin:miter;stroke-opacity:1" />
      <path
         sodipodi:nodetypes="cccc"
         inkscape:connector-curvature="0"
         id="path3340"
         d="m 258.09397,136.48215 35.35534,0 0,-29.69849 -35.53211,0"
         style="fill:#1a1a1a;fill-rule:evenodd;stroke:#000000;stroke-width:1px;stroke-linecap:butt;stroke-linejoin:miter;stroke-opacity:1" />
      <path
         sodipodi:nodetypes="cccc"
         inkscape:connector-curvature="0"
         id="path3342"
         d="m 258.11395,136.4506 c -20.85872,6.8349 -36.25301,26.52226 -45.51408,45.2342 -31.30775,-19.17038 -46.17562,-66.58522 -16.09188,-97.255521 18.69881,17.403151 38.33196,21.949591 61.5699,22.357261"
         style="fill:#1a1a1a;fill-rule:evenodd;stroke:#000000;stroke-width:1px;stroke-linecap:butt;stroke-linejoin:miter;stroke-opacity:1" />
      <path
         sodipodi:nodetypes="ccccc"
         inkscape:connector-curvature="0"
         id="path3344"
         d="m 196.48928,84.458178 c -26.82613,26.269112 -21.72688,73.588402 16.18024,97.076692 1.18735,-2.35064 2.58848,-4.84104 3.8933,-7.0742 -36.70705,-30.84212 -30.96169,-68.55796 -12.68284,-83.823875 -3.09904,-2.051019 -4.63773,-3.320101 -7.3907,-6.178617 z"
         style="fill:#666666;fill-rule:evenodd;stroke:#000000;stroke-width:1px;stroke-linecap:butt;stroke-linejoin:miter;stroke-opacity:1" />
    </g>
    <path
       style="fill:#000000"
       id="path4154"
       d="m 257.98527,136.49194 c 0.003,-0.0112 0.004,-0.0228 0.006,-0.0342 -7.7e-4,-0.005 0.002,-0.0101 0.003,-0.0152 0.002,-0.01 -9.8e-4,-6e-5 0.001,-0.008 0.003,-0.005 0.004,-0.0102 0.005,-0.0159 7.5e-4,-0.006 7e-4,-0.0118 -4.8e-4,-0.0178 -6.5e-4,-0.005 -0.003,-0.01 -0.005,-0.0142 -0.002,-0.004 -0.002,-0.008 -0.005,-0.012 -1.5e-4,-2.3e-4 -5e-4,-2.3e-4 -7.5e-4,-3.4e-4 -5e-4,-8.5e-4 -10e-4,-0.002 -10e-4,-0.003 -0.002,-5.1e-4 4.3e-4,3.3e-4 -0.003,-0.003 -3.1e-4,-3.1e-4 -9.5e-4,-7e-5 -0.001,-3.7e-4 -0.003,-0.002 -0.003,-0.006 -0.006,-0.008 -0.002,-0.002 -0.002,-0.008 -0.005,-0.009 -3.4e-4,-1e-4 -5.6e-4,7.8e-4 -8.6e-4,6e-4 -0.005,-0.003 4.4e-4,-0.002 -0.003,-0.003 -0.003,-0.005 -0.004,-0.002 -0.005,-0.003 -10e-4,-5.4e-4 -0.002,-0.002 -0.003,-0.003 -5.8e-4,-4e-4 -0.001,-2.3e-4 -0.002,-6.7e-4 -10e-4,-9e-4 -0.002,-0.002 -0.003,-0.003 -0.003,-4.7e-4 -0.003,-0.005 -0.007,-0.005 -5.3e-4,-1.1e-4 -0.001,5.4e-4 -0.002,2.8e-4 -0.0109,-0.006 0.003,-6.6e-4 -0.005,-0.003 -9.5e-4,-0.001 -0.002,-0.002 -0.003,-0.003 -6.5e-4,-3.3e-4 -0.001,-4.9e-4 -0.002,-10e-4 -0.001,-9.9e-4 -0.002,-0.002 -0.003,-0.003 -4.9e-4,-4.7e-4 -0.001,-4.9e-4 -0.002,-9.7e-4 -0.002,-0.002 -0.004,-0.005 -0.005,-0.008 -0.004,-0.003 -0.005,-0.0119 -0.009,-0.014 -0.005,-0.007 -0.007,-0.0162 -0.008,-0.0249 -5.7e-4,-0.008 -0.003,-0.0177 0.002,-0.0253 0.002,-0.006 0.006,-0.0109 0.008,-0.0171 10e-4,-0.007 10e-4,-0.0142 0.002,-0.0213 5e-5,-0.008 0,-0.0156 -2e-5,-0.0234 -5e-5,-0.008 1.6e-4,-0.0166 -3.3e-4,-0.0248 3.9e-4,-0.007 0.002,-0.013 0.003,-0.0196 6.4e-4,-0.005 0.001,-0.008 -8.8e-4,-0.0124 -10e-4,-5.1e-4 -8e-4,0.002 -10e-4,0.002 -9.4e-4,-2e-4 -0.001,-10e-4 -0.002,-0.002 -4.7e-4,-2.7e-4 -0.001,1.4e-4 -0.002,-1.9e-4 -0.007,-0.005 4.8e-4,-0.002 -0.004,-0.004 -5.6e-4,1.2e-4 -10e-4,6e-4 -0.002,3.4e-4 -0.004,-0.002 -0.001,-0.003 -0.005,-0.003 -0.005,-7.8e-4 -0.002,0.002 -0.007,-0.002 -0.005,-0.002 -0.0112,-4.6e-4 -0.0168,-6e-5 -10e-4,6e-5 -0.002,1.2e-4 -0.003,1.9e-4 0,0 0.26239,-0.13195 0.26239,-0.13195 l 0,0 c 0.001,2e-4 0.003,3.9e-4 0.004,5.9e-4 0.008,0.002 0.0146,0.005 0.0215,0.009 6.9e-4,-2e-5 10e-4,-3.1e-4 0.002,-4e-5 0.004,0.002 0.006,0.005 0.01,0.007 5.5e-4,3.1e-4 10e-4,1.3e-4 0.002,5e-4 10e-4,8.9e-4 0.002,0.002 0.003,0.003 8.8e-4,8.6e-4 0.002,0.002 0.003,0.003 5.4e-4,2.4e-4 0.001,3.3e-4 0.002,7e-4 0.005,0.004 0.008,0.009 0.0108,0.0147 0.004,0.008 0.006,0.0173 0.005,0.0266 -1.8e-4,0.007 10e-6,0.0146 -0.003,0.0213 -0.003,0.004 -2.9e-4,0.0155 -0.001,0.0211 1e-5,0.008 3e-5,0.0157 7e-5,0.0236 3e-5,0.008 1.1e-4,0.0168 -2.4e-4,0.0252 -4.6e-4,0.008 -3.8e-4,0.0171 -0.005,0.0238 -3.3e-4,0.001 -8.5e-4,0.004 -0.002,0.005 -6e-4,3.2e-4 -0.001,-4.6e-4 -0.002,-8e-5 -6.2e-4,4.2e-4 -5e-4,0.001 -9.3e-4,0.002 -0.002,0.003 -0.001,-0.002 -0.001,0.004 2.7e-4,0.004 5e-4,0.007 0.003,0.0103 0.003,0.005 0.006,0.0101 0.009,0.0146 0.004,-8e-5 0.006,0.006 0.01,0.006 9.1e-4,7.6e-4 0.002,0.002 0.003,0.002 5.9e-4,2e-4 10e-4,2.2e-4 0.002,6.1e-4 0.002,0.002 0.004,0.004 0.006,0.006 3.8e-4,2.8e-4 9.8e-4,8e-5 10e-4,3.4e-4 9.5e-4,6.3e-4 0.002,0.002 0.003,0.002 0.003,5.2e-4 -3e-5,-2.7e-4 0.004,0.003 5.6e-4,3.7e-4 0.001,3.1e-4 0.002,7.3e-4 0.003,0.002 0.004,0.006 0.007,0.008 0.001,0.002 0.003,0.003 0.004,0.005 0.002,0.003 0.004,0.008 0.007,0.0108 0.003,0.005 0.008,0.009 0.0109,0.0146 0.003,0.006 0.006,0.0115 0.008,0.0176 0.003,0.007 0.006,0.0137 0.007,0.0209 0.002,0.008 0.003,0.0165 0.003,0.025 -6e-5,0.008 9e-5,0.0164 -0.002,0.0243 -3.9e-4,9e-4 -6.3e-4,0.002 -10e-4,0.003 -4.3e-4,6.1e-4 -10e-4,7.5e-4 -0.002,0.001 -0.002,0.004 -7.4e-4,0.0101 -0.005,0.0139 -0.002,0.0109 -0.006,0.0213 -0.005,0.0325 0,0 -0.28039,0.0873 -0.28039,0.0873 z"
       inkscape:connector-curvature="0" />
    <path
       style="fill:#000000"
       id="path4156"
       d="m 257.69125,136.26292 c 0.007,-0.002 0.0119,-0.008 0.0174,-0.012 0.007,-0.006 -2.1e-4,0.002 0.006,-0.005 0.006,-0.008 -6.6e-4,-2.5e-4 0.006,-0.005 9.6e-4,-7.2e-4 0.001,-0.002 0.002,-0.003 7.5e-4,-4.6e-4 0.002,-7e-5 0.003,-5.4e-4 0.006,-0.003 -10e-4,-0.002 0.005,-0.003 0.002,-10e-4 0.002,-0.004 0.004,-0.006 6.3e-4,-5.6e-4 0.002,-10e-5 0.002,-5.4e-4 9.1e-4,-5.8e-4 10e-4,-0.002 0.002,-0.002 0.006,-0.003 -0.002,0.005 0.005,-0.002 0.009,1.5e-4 0.004,-0.001 0.008,-0.007 4.7e-4,-6.8e-4 0.001,-8.2e-4 0.002,-0.001 6.2e-4,-10e-4 0.001,-0.002 0.002,-0.003 0.0509,-0.0874 0.21348,-0.0793 0.28107,-0.10651 0.089,-0.0358 -0.35271,0.14718 -0.2708,0.0973 0.0836,-0.0509 0.17826,-0.0949 0.276,-0.10043 0.0959,-0.005 -0.18016,0.0667 -0.27024,0.10011 0.002,-5e-5 0.003,-0.003 0.005,-0.004 8.5e-4,-3.5e-4 0.002,4.4e-4 0.003,1.7e-4 9.5e-4,-3e-4 0.001,-0.001 0.002,-0.002 0.006,-0.002 -5.9e-4,0.003 0.005,-0.002 0.004,7.2e-4 0.004,-0.004 0.006,-0.006 6.4e-4,-5.5e-4 0.002,-8e-5 0.002,-5.2e-4 0.005,-0.003 -6.2e-4,-0.002 0.005,-0.003 7e-4,-7.9e-4 10e-4,-0.002 0.002,-0.002 6.9e-4,-4.1e-4 0.002,1.6e-4 0.002,-2.8e-4 0.002,-0.001 0.002,-0.004 0.004,-0.006 6.4e-4,-5.6e-4 0.002,-3.7e-4 0.002,-5.5e-4 7.4e-4,-8e-4 10e-4,-0.002 0.002,-0.002 0.004,5.7e-4 0.004,-0.003 0.007,-0.004 8.6e-4,-3.6e-4 0.002,0 0.003,-5.1e-4 10e-4,-7.9e-4 0.004,-0.005 0.005,-0.006 0.008,-0.003 -0.004,0.002 0.005,-0.004 7.2e-4,-4.7e-4 0.002,-4e-5 0.003,-5.1e-4 0.004,-0.002 0.002,-0.005 0.007,-0.006 0.003,-0.005 0.005,-7.9e-4 0.007,-0.002 9.3e-4,-4.1e-4 9.9e-4,-0.002 0.002,-0.002 5.5e-4,-4.9e-4 0.002,-2.9e-4 0.002,-8.5e-4 7.8e-4,-9.2e-4 10e-4,-0.002 0.002,-0.003 0.004,-0.001 0.003,-0.006 0.005,-0.009 5.1e-4,-6.7e-4 0.002,-4.9e-4 0.002,-0.001 0.004,-0.004 -2.7e-4,-0.002 0.004,-0.003 8e-4,1.4e-4 0.002,8e-4 0.002,4.1e-4 9.2e-4,-5.1e-4 9.4e-4,-0.002 0.002,-0.003 0.003,-0.003 0.004,-5.4e-4 0.006,-7e-5 7.7e-4,0.001 0.003,0.0104 2.3e-4,0.0104 -10e-4,2e-5 -0.002,-0.001 -0.003,-0.002 -7.5e-4,-3.5e-4 -0.002,-3.9e-4 -0.002,-5.9e-4 -7.9e-4,2e-5 -0.002,4e-5 -0.002,5e-5 0,0 0.26629,-0.12516 0.26629,-0.12516 l 0,0 c 10e-4,6.6e-4 0.002,0.001 0.003,0.002 0.001,5.6e-4 0.002,0.001 0.003,0.002 7.1e-4,2.9e-4 0.002,3e-5 0.002,4.8e-4 0.007,0.005 0.0108,0.0152 0.0132,0.0235 8e-4,0.006 0.002,0.0138 -0.001,0.0192 -4.6e-4,6.9e-4 -0.002,7.4e-4 -0.002,10e-4 -7.3e-4,0.001 -7.6e-4,0.003 -10e-4,0.005 -6e-4,10e-4 -8.6e-4,0.002 -0.002,0.003 -6.7e-4,5.6e-4 -0.002,-3e-5 -0.003,4.4e-4 -8.9e-4,5.7e-4 -9.8e-4,0.002 -0.002,0.002 -0.003,0.001 -0.004,-0.004 -0.007,0.003 -0.004,0.002 -3.6e-4,-4.9e-4 -0.003,0.004 -4.5e-4,7.2e-4 -0.002,8.3e-4 -0.002,0.002 -0.002,0.004 -4.3e-4,0.008 -0.006,0.009 -0.005,0.006 -0.004,2e-5 -0.008,0.004 -9.3e-4,9e-4 -10e-4,0.002 -0.002,0.003 -7.2e-4,6.4e-4 -0.002,5.8e-4 -0.003,8.7e-4 -7.7e-4,9.5e-4 -0.002,0.002 -0.002,0.003 -0.006,3.3e-4 -0.004,0.001 -0.007,0.006 -0.002,0.003 -0.006,0.002 -0.007,0.006 -0.0117,0.003 0.008,-0.003 -0.005,0.003 -8.6e-4,4.1e-4 -0.002,-5.2e-4 -0.003,-4.3e-4 -0.004,3.6e-4 -0.002,0.002 -0.004,0.004 -5.8e-4,6.4e-4 -0.002,6.4e-4 -0.002,9.5e-4 -6e-4,0.001 -8.7e-4,0.003 -0.002,0.003 -6.5e-4,6e-4 -0.002,1.6e-4 -0.003,6.9e-4 -9.1e-4,6.9e-4 -0.001,0.002 -0.002,0.003 -0.003,10e-4 -0.004,-0.003 -0.007,0.004 -0.006,0.003 0.002,-0.001 -0.004,0.005 -6.4e-4,6.7e-4 -0.002,4.2e-4 -0.003,0.001 -9.5e-4,8.2e-4 -10e-4,0.002 -0.002,0.003 -8.1e-4,5.1e-4 -0.002,-1.4e-4 -0.003,1.3e-4 -9.2e-4,2.6e-4 -0.002,9.3e-4 -0.003,0.001 -0.0918,0.0343 -0.20196,0.0379 -0.27532,0.10284 -0.0718,0.0636 0.36494,-0.11347 0.27027,-0.0984 -0.0967,0.0154 -0.18113,0.0771 -0.27652,0.0994 -0.0119,0.003 0.36822,-0.0752 0.26445,-0.0997 -0.008,10e-4 0.004,-0.001 -0.004,0.003 -7.8e-4,4e-4 -0.002,-5.8e-4 -0.003,-3.7e-4 -0.004,0.001 -0.002,0.007 -0.005,0.01 -0.006,0.002 0.002,-0.001 -0.004,0.004 -6.4e-4,5.9e-4 -0.002,1.3e-4 -0.003,6.5e-4 -9.2e-4,6.8e-4 -10e-4,0.002 -0.002,0.003 -8.6e-4,4.1e-4 -0.002,-5.2e-4 -0.003,-4.2e-4 -8.5e-4,9e-5 -0.002,6.4e-4 -0.002,9.7e-4 -0.005,0.009 0.001,-7.4e-4 -0.004,0.005 -9.7e-4,9e-4 -0.001,0.002 -0.002,0.003 -8e-4,6.9e-4 -0.002,4.6e-4 -0.003,10e-4 -0.006,0.004 10e-4,0.002 -0.006,0.004 -0.009,0.005 0.002,-0.002 -0.007,0.006 -10e-4,0.001 -0.003,0.002 -0.004,0.003 -0.001,0.001 -0.003,0.003 -0.004,0.004 -0.008,0.007 -10e-4,-0.002 -0.007,0.007 0,0 -0.28717,0.063 -0.28717,0.063 z"
       inkscape:connector-curvature="0" />
    <path
       style="fill:#000000"
       id="path4158"
       d="m 257.96666,136.11081 c 0.007,0.009 0.0149,0.016 0.0214,0.025 0.003,0.003 0.006,0.006 0.008,0.009 6.7e-4,7.4e-4 0.002,0.001 0.002,0.002 0.005,0.005 5.3e-4,0.002 0.005,0.005 8.1e-4,10e-4 0.002,0.002 0.002,0.003 5.8e-4,3e-4 10e-4,4.6e-4 0.002,9.1e-4 9.2e-4,9.1e-4 10e-4,0.002 0.002,0.003 4.3e-4,4.1e-4 0.001,3.4e-4 0.002,7.6e-4 0.004,0.004 3.6e-4,0.002 0.004,0.004 0.003,0.006 0.004,0.003 0.005,0.003 10e-4,5.4e-4 0.002,0.002 0.003,0.003 5.5e-4,3.9e-4 0.001,2e-4 0.002,6.2e-4 10e-4,8.9e-4 0.002,0.002 0.003,0.003 6.5e-4,3.1e-4 0.001,8.1e-4 0.002,9.4e-4 5.7e-4,1.1e-4 0.001,-5.1e-4 0.002,-2.4e-4 10e-4,6.2e-4 0.002,0.002 0.003,0.003 6.2e-4,4.3e-4 0.002,3.3e-4 0.002,8.1e-4 0.007,0.006 -2.8e-4,0.002 0.005,0.004 0.001,0.001 0.002,0.004 0.005,0.004 5.3e-4,1.2e-4 0.001,-5.3e-4 0.002,-2.7e-4 10e-4,6.2e-4 0.002,0.002 0.003,0.003 5.8e-4,4.2e-4 0.001,2.8e-4 0.002,7.4e-4 0.001,9.2e-4 0.002,0.002 0.003,0.003 0.005,0.003 0.0108,0.007 0.0151,0.0114 0.003,6.7e-4 0.004,0.005 0.007,0.006 5.5e-4,1.3e-4 10e-4,-4.9e-4 0.002,-2.2e-4 0.0105,0.006 -0.003,7.3e-4 0.005,0.003 6.4e-4,-9e-5 10e-4,-5.4e-4 0.002,-2.6e-4 10e-4,5.9e-4 0.002,0.002 0.003,0.003 6.7e-4,4.5e-4 0.002,4.5e-4 0.002,8.7e-4 10e-4,6.3e-4 0.002,0.002 0.003,0.002 0.007,0.004 -0.003,-0.004 0.006,0.004 10e-4,0.002 0.003,7.6e-4 0.005,0.002 10e-4,6.7e-4 0.002,0.002 0.003,0.003 7.4e-4,5e-4 0.002,5e-4 0.002,0.001 0.008,0.006 -6.2e-4,0.001 0.005,0.005 0.004,-8e-5 3.8e-4,-4.6e-4 0.005,0.003 6.4e-4,4.6e-4 0.002,3.8e-4 0.002,8.8e-4 0.003,0.002 0.003,0.005 0.007,0.004 0.002,0.002 0.003,0.003 0.005,0.004 6.5e-4,1.1e-4 10e-4,-4.5e-4 0.002,-1.5e-4 0.004,0.002 0.002,0.004 0.007,0.004 0.006,-0.001 0.0119,-0.002 0.0179,-0.002 0.008,-3e-4 0.0154,-3.3e-4 0.023,-3.7e-4 0.005,-0.002 0.0139,0.006 0.0186,0.005 9.5e-4,-3.8e-4 0.001,-0.002 0.002,-0.002 0.011,-0.10067 0.002,-0.009 -0.27056,0.0974 -0.001,4.5e-4 0.002,0.002 0.003,0.003 0.003,0.002 0.003,-10e-4 0.004,-0.003 9e-4,-0.005 0.002,-0.01 3.5e-4,-0.0137 -0.002,-0.006 -6.9e-4,-2.2e-4 -0.003,-6.6e-4 -9.4e-4,-2.2e-4 -10e-4,-0.001 -0.002,-0.002 -4.7e-4,-2.8e-4 -10e-4,1.3e-4 -0.002,-2e-4 -10e-4,-7.7e-4 -0.002,-0.002 -0.003,-0.003 -8.9e-4,-0.002 -0.002,1.2e-4 -0.004,-4.2e-4 -10e-4,-5.8e-4 -0.002,-0.002 -0.003,-0.003 -0.004,-0.003 -10e-4,0.002 -0.007,-0.003 -0.004,-0.003 -0.008,0.001 -0.0122,3.2e-4 -10e-4,-3.9e-4 -0.003,-10e-4 -0.004,-0.002 -0.004,-0.003 -0.0116,-2.6e-4 -0.0152,-0.001 -0.001,-4.3e-4 -0.003,-0.002 -0.004,-0.002 -0.003,-0.003 -0.009,-7.8e-4 -0.0123,-0.002 -0.003,-8.4e-4 -0.005,-0.003 -0.007,-0.004 -0.003,-0.004 -0.007,-0.003 -0.01,-0.005 -0.005,-0.002 -0.004,-0.004 -0.009,-0.004 -0.002,-0.002 -0.003,-0.003 -0.006,-0.004 -7.6e-4,-2.1e-4 -0.002,2e-4 -0.002,-1.7e-4 -0.004,-0.002 -0.003,-0.004 -0.008,-0.004 -0.002,-0.002 -0.004,-0.004 -0.008,-0.004 -7.8e-4,6e-5 -0.002,6.3e-4 -0.002,3.5e-4 -10e-4,-4.9e-4 -0.002,-0.002 -0.003,-0.002 -8.3e-4,-4.8e-4 -0.002,-6.9e-4 -0.003,-0.001 -0.006,-0.006 -0.0111,-0.0155 -0.0145,-0.0239 -0.002,-0.006 -0.004,-0.0111 -0.006,-0.0164 -0.002,-0.007 -0.005,-0.0131 -0.007,-0.0199 -10e-4,-0.006 -0.003,-0.0133 -0.002,-0.02 7.6e-4,-0.006 0.001,-9.6e-4 0.003,-0.004 7.9e-4,-9.4e-4 0.001,-0.002 0.002,-0.003 0.004,-0.009 -6.8e-4,-0.001 0.004,-0.005 8.7e-4,-7.6e-4 10e-4,-0.002 0.002,-0.003 6.6e-4,-4.8e-4 0.002,4e-5 0.002,-4.2e-4 9.4e-4,-6.3e-4 0.004,-0.005 0.004,-0.006 0.002,-0.002 0.003,7.9e-4 0.005,2e-4 9.3e-4,-3.5e-4 0.001,-0.002 0.002,-0.002 0.001,-0.001 0.004,-7.6e-4 0.006,-0.001 -6.6e-4,-0.004 0.003,-0.005 0.004,-0.008 0.002,-0.004 4.4e-4,-0.005 0.004,-0.008 0.003,-0.005 0.002,-0.0126 0.007,-0.0172 -5.1e-4,-0.005 0.003,-0.005 0.004,-0.007 0.002,-0.004 2.9e-4,-0.004 0.004,-0.007 0.005,-0.005 0.003,-0.0121 0.006,-0.0183 3.6e-4,-0.001 4.7e-4,-0.003 10e-4,-0.004 3.5e-4,-7.9e-4 0.001,-0.001 0.002,-0.002 0.002,-0.004 0.002,-0.009 0.005,-0.0121 6.6e-4,-6.2e-4 0.002,-3.7e-4 0.003,-5.6e-4 0.002,-6.9e-4 0.003,-0.004 0.005,-0.004 8.7e-4,-3.6e-4 0.002,4.2e-4 0.003,1.9e-4 0.004,-0.001 0.002,-0.004 0.008,-0.004 0.002,-2.7e-4 0.003,-0.003 0.005,-0.004 8.8e-4,-3.4e-4 0.002,4.6e-4 0.003,2.2e-4 0.006,-0.002 -9.3e-4,-0.002 0.005,-0.004 0.0919,-0.0339 0.1842,-0.0669 0.2763,-0.10042 0.002,8.8e-4 0.005,2e-5 0.008,8.6e-4 0.002,5.6e-4 0.003,0.002 0.004,0.002 0.003,0.002 0.006,0.003 0.0101,0.003 6.6e-4,-7.5e-4 0.001,-10e-4 0.002,-0.002 0,0 -0.26216,0.1339 -0.26216,0.1339 l 0,0 c -0.001,-7.4e-4 -0.003,-10e-4 -0.004,-0.002 -0.003,-4.7e-4 -0.006,-0.002 -0.009,1.2e-4 -7.5e-4,5.7e-4 -9.6e-4,0.002 -0.002,0.002 -0.002,0.001 -0.004,0.001 -0.006,0.003 0.0901,-0.0328 0.18023,-0.0657 0.27034,-0.0986 -0.002,-3e-5 -0.004,-4.3e-4 -0.006,0.001 -9.6e-4,7.9e-4 -10e-4,0.002 -0.002,0.003 -0.002,9.4e-4 -0.004,-0.001 -0.006,0.001 -0.005,0.006 -0.004,7e-4 -0.008,0.004 -9.8e-4,7.4e-4 -10e-4,0.002 -0.002,0.003 -0.002,8.4e-4 -0.004,-0.002 -0.006,3.3e-4 -7.9e-4,7.4e-4 -10e-4,0.002 -0.002,0.002 -0.002,3.8e-4 -0.006,-0.004 -0.008,-0.002 -8.1e-4,5.9e-4 -7.2e-4,0.002 -0.002,0.003 -6.3e-4,4.3e-4 -0.002,5e-5 -0.002,7e-5 -4.7e-4,8.1e-4 -9.3e-4,0.002 -10e-4,0.002 -6.8e-4,1.2e-4 -0.002,-1.5e-4 -0.002,3.5e-4 -7e-4,7.2e-4 -5.2e-4,0.002 -10e-4,0.003 -3.5e-4,6.1e-4 -0.001,8.3e-4 -0.001,0.001 -8.3e-4,0.003 3.6e-4,0.006 -7.4e-4,0.009 -3.5e-4,0.002 -7.8e-4,0.005 -0.002,0.007 -4.4e-4,5.6e-4 -0.002,4e-4 -0.002,0.001 -0.002,0.003 0,0.007 -0.004,0.008 -3.4e-4,10e-4 -8.7e-4,0.005 -0.002,0.006 -5.5e-4,4.5e-4 -0.002,-1.6e-4 -0.002,3.3e-4 -7.2e-4,7.2e-4 -5.5e-4,0.002 -10e-4,0.003 -0.003,0.005 -10e-4,-0.004 -0.002,0.006 -3.5e-4,0.002 -7.5e-4,0.005 -0.002,0.007 -4.2e-4,5.5e-4 -10e-4,4.4e-4 -0.002,0.001 -10e-4,0.003 -2e-5,0.007 -0.003,0.009 -3.9e-4,0.004 -3.1e-4,0.01 -0.003,0.0133 -4.8e-4,7.2e-4 -0.002,7.6e-4 -0.002,0.002 -0.008,0.014 0.004,-0.003 -0.003,0.007 -0.008,-0.001 -0.003,3.7e-4 -0.007,0.004 -6.6e-4,5.6e-4 -0.002,-2e-5 -0.003,4.5e-4 -0.004,0.003 5.8e-4,0.003 -0.005,0.002 -0.005,10e-4 6e-5,-6.4e-4 -0.003,0.004 -0.003,0.004 -0.005,-0.006 -0.008,-0.005 10e-4,0.005 0.004,0.01 0.005,0.0149 0.003,0.006 0.005,0.0114 0.007,0.0173 8.1e-4,0.002 0.002,0.004 0.003,0.005 8e-5,8e-5 8.7e-4,-0.003 0.002,-0.002 9.4e-4,4.3e-4 0.002,8.5e-4 0.003,10e-4 6.8e-4,-5e-5 0.001,-3.9e-4 0.002,-1.6e-4 0.004,0.001 0.007,0.006 0.0114,0.006 5.5e-4,3.7e-4 0.005,0.004 0.006,0.004 5.8e-4,2.1e-4 10e-4,-2.5e-4 0.002,0 0.003,10e-4 0.005,0.004 0.008,0.004 0.001,6.2e-4 0.005,0.003 0.006,0.004 7.4e-4,2.2e-4 0.002,-1.3e-4 0.002,1.1e-4 0.003,0.001 0.006,0.004 0.01,0.003 9.4e-4,1.9e-4 0.002,3.8e-4 0.003,5.8e-4 7.3e-4,-2.4e-4 10e-4,-7.6e-4 0.002,-7.1e-4 0.005,3.2e-4 0.009,0.004 0.0134,0.004 0.007,-0.002 0.0132,0.004 0.0197,0.004 0.007,-0.002 0.014,0.006 0.0198,0.009 0.004,3.5e-4 0.0129,0.008 0.0157,0.0113 0.006,0.003 0.0111,0.0126 0.0139,0.0188 0.003,0.009 0.005,0.0182 0.004,0.0278 4e-5,0.002 2.6e-4,0.0223 7e-5,0.0224 -0.27056,0.11024 -0.19648,0.16393 -0.27915,0.10188 -0.004,-0.002 -0.009,-0.005 -0.0135,-0.004 -8.6e-4,2.3e-4 -0.002,0.001 -0.002,0.001 -0.001,2.5e-4 -0.003,0 -0.004,1e-5 -0.008,0 -0.0158,6e-5 -0.0236,-5.8e-4 -0.008,-9.3e-4 -0.0164,-0.003 -0.0233,-0.008 -2.8e-4,-2e-4 -0.005,-0.004 -0.006,-0.004 -5.6e-4,-2.5e-4 -10e-4,1.1e-4 -0.002,-1.9e-4 -0.003,-0.002 -0.004,-0.005 -0.008,-0.005 -0.002,-0.002 -0.004,-0.004 -0.006,-0.005 -4.2e-4,-2.5e-4 -0.001,1.1e-4 -0.001,-1.1e-4 -10e-4,-5.4e-4 -0.002,-0.002 -0.003,-0.002 -0.006,-0.004 0.006,0.007 -0.005,-0.003 -0.005,-0.004 -0.011,-0.005 -0.0154,-0.01 -0.004,-0.001 -0.007,-0.004 -0.0108,-0.006 -5.6e-4,-2.7e-4 -10e-4,2e-5 -0.002,-3.1e-4 -10e-4,-7.6e-4 -0.002,-0.002 -0.003,-0.003 -9.2e-4,-7.9e-4 -0.002,-0.002 -0.003,-0.002 -6.1e-4,-2.5e-4 -10e-4,-3.4e-4 -0.002,-7.5e-4 -0.004,-0.003 -0.006,-0.007 -0.01,-0.009 -0.004,-0.002 9.7e-4,5.9e-4 -0.005,-0.003 -6.3e-4,-4.1e-4 -0.001,-4.3e-4 -0.002,-8.5e-4 -0.003,-0.002 -0.006,-0.005 -0.008,-0.007 -0.003,-5.3e-4 1.9e-4,2.9e-4 -0.004,-0.003 -5.3e-4,-3.4e-4 -10e-4,-2.2e-4 -0.002,-6e-4 -0.002,-0.002 -0.004,-0.005 -0.007,-0.006 -0.004,-0.004 -0.0106,-0.005 -0.0144,-0.0104 -0.003,-6.9e-4 -2e-5,2.5e-4 -0.004,-0.003 -5.4e-4,-3.9e-4 -10e-4,-3.9e-4 -0.002,-8.4e-4 -0.003,-0.002 -0.004,-0.006 -0.007,-0.008 -0.004,-0.005 -0.008,-0.009 -0.0122,-0.0134 -0.005,-0.007 -0.0106,-0.0127 -0.0154,-0.0195 -0.007,-0.008 -0.014,-0.0162 -0.0219,-0.0234 0,0 0.2724,-0.10995 0.2724,-0.10995 z"
       inkscape:connector-curvature="0" />
    <rect
       style="fill:#000000"
       id="rect4166"
       width="0.1796875"
       height="0.12890625"
       x="257.94922"
       y="135.97939" />
    <path
       style="fill:#668000;fill-rule:evenodd;stroke:#000000;stroke-width:1px;stroke-linecap:butt;stroke-linejoin:miter;stroke-opacity:1"
       d="m 389.26229,150.80105 c 0.33877,-37.18942 7.43372,-61.699434 31.8198,-65.760931 9.37236,-1.560965 17.78423,9.638798 20.5061,19.798991 10.61109,2.12785 24.35421,10.63091 22.27386,20.5061 -5.41622,25.71015 -30.13109,24.19492 -74.59976,25.45584 z"
       id="path4228"
       inkscape:connector-curvature="0"
       sodipodi:nodetypes="cscac" />
    <path
       style="fill:#668000;fill-rule:evenodd;stroke:#000000;stroke-width:1px;stroke-linecap:butt;stroke-linejoin:miter;stroke-opacity:1"
       d="m 388.37718,150.43896 c -35.02675,-3.81013 -61.48093,-5.9457 -66.54854,-29.70345 -1.96986,-9.23501 8.83952,-18.04509 18.90561,-21.096664 1.78088,-10.674803 13.45901,-24.849544 23.9792,-22.107461 24.7704,6.456394 27.05929,26.759295 23.66373,72.907575 z"
       id="path4228-5"
       inkscape:connector-curvature="0"
       sodipodi:nodetypes="cacsc" />
    <path
       style="fill:#668000;fill-rule:evenodd;stroke:#000000;stroke-width:1px;stroke-linecap:butt;stroke-linejoin:miter;stroke-opacity:1"
       d="m 388.89112,150.84817 c 0.0373,35.06915 -12.09344,59.32118 -35.58883,60.37538 -10.04361,0.45064 -20.26061,-10.46453 -21.77092,-20.874 -10.28792,-3.35881 -18.08597,-17.411 -13.7563,-26.31007 10.54795,-21.67992 26.80684,-17.15947 71.11605,-13.19131 z"
       id="path4228-3"
       inkscape:connector-curvature="0"
       sodipodi:nodetypes="cscac" />
    <path
       style="fill:#668000;fill-rule:evenodd;stroke:#000000;stroke-width:1px;stroke-linecap:butt;stroke-linejoin:miter;stroke-opacity:1"
       d="m 389.18721,151.20319 c 33.81501,-1.47704 59.42916,-4.50405 70.41231,16.6764 4.44655,8.57495 -5.24718,20.25273 -14.62512,25.0164 0.11195,10.82176 -6.06125,23.77233 -15.66862,24.21767 -27.54739,1.27693 -43.25313,-33.58772 -40.11857,-65.91047 z"
       id="path4228-56"
       inkscape:connector-curvature="0"
       sodipodi:nodetypes="cscsc" />
    <path
       style="fill:none;fill-rule:evenodd;stroke:#000000;stroke-width:1px;stroke-linecap:butt;stroke-linejoin:miter;stroke-opacity:1"
       d="m 340.82575,99.535529 c 16.87124,12.312141 33.65091,27.328341 47.55931,50.791021 -13.89352,-23.3862 -30.85791,-38.63636 -47.55931,-50.791021 z"
       id="path4284"
       inkscape:connector-curvature="0"
       sodipodi:nodetypes="ccc" />
    <path
       style="fill:#668000;fill-rule:evenodd;stroke:#000000;stroke-width:1px;stroke-linecap:butt;stroke-linejoin:miter;stroke-opacity:1"
       d="m 389.44571,150.81434 c 14.98578,-20.34621 33.40369,-38.1993 52.10659,-45.93934 -20.2141,8.6225 -37.62,26.31435 -52.10659,45.93934 z"
       id="path4301"
       inkscape:connector-curvature="0"
       sodipodi:nodetypes="ccc" />
    <path
       style="fill:none;fill-rule:evenodd;stroke:#000000;stroke-width:1px;stroke-linecap:butt;stroke-linejoin:miter;stroke-opacity:1"
       d="m 389.05627,150.98448 c -22.22984,11.54949 -42.55354,24.39257 -57.31368,39.49906 17.41791,-16.85575 36.8474,-29.15531 57.31368,-39.49906 z"
       id="path4303"
       inkscape:connector-curvature="0"
       sodipodi:nodetypes="ccc" />
    <path
       style="fill:none;fill-rule:evenodd;stroke:#000000;stroke-width:1px;stroke-linecap:butt;stroke-linejoin:miter;stroke-opacity:1"
       d="m 388.90873,150.80105 c 21.50095,12.13101 40.22282,26.1704 55.88645,41.80381 -14.74555,-14.01674 -31.01727,-28.36556 -55.88645,-41.80381 z"
       id="path4305"
       inkscape:connector-curvature="0"
       sodipodi:nodetypes="ccc" />
  </g>
  <g
     inkscape:groupmode="layer"
     id="layer2"
     inkscape:label="Zweihandaxt" />
</svg>
